# xmcd CD database file
#
# Track frame offsets:
#	150
#	45145
#	74788
#	96182
#	136102
#	181030
#	207196
#	230158
#	248620
#	272159
#	281885
#	313063
#
# Disc length: 4430 seconds
#
# Revision: 0
# Processed by: cddbd v1.4PL0 Copyright (c) Steve Scherf et al.
# Submitted via: CDex 1.51
#
DISCID=ae114c0c
DTITLE=Cannonball Adderley - 75th Birthday Celebration [Disc Two]
DYEAR=2003
DGENRE=Jazz
TTITLE0=Jeannine
TTITLE1=One For Daddy-O
TTITLE2=On Green Dolphin Street
TTITLE3=Azule Serape
TTITLE4=The Chant
TTITLE5=Blues On Down
TTITLE6=Toy
TTITLE7=Nancy (With The Laughing Face)
TTITLE8=Waltz For Debby
TTITLE9=African Waltz
TTITLE10=New Delhi
TTITLE11=Hold It !
EXTD=YEAR: 2003
EXTT0=
EXTT1=
EXTT2=
EXTT3=
EXTT4=
EXTT5=
EXTT6=
EXTT7=
EXTT8=
EXTT9=
EXTT10=
EXTT11=
PLAYORDER=
